<?xml version="1.0" encoding="UTF-8"?>
<svg id="Calque_2" data-name="Calque 2" xmlns="http://www.w3.org/2000/svg" viewBox="0 0 1282.82 274.97">
  <defs>
    <style>
      .cls-1 {
        fill: #0d7bec;
      }

      .cls-2 {
        fill: #f6cca4;
      }
    </style>
  </defs>
  <g id="Calque_1-2" data-name="Calque 1">
    <text/>
    <text/>
    <g>
      <path class="cls-1" d="M49.75.45c125.95-.39,0,0,93.86.13,3.65.98,6.6,2.71,7.52,6.61.76,3.23.91,16.59.2,19.75-.9,3.99-5.28,6.81-9.09,6.81-32.93-.02,28.98.13-91.9-.03-21.12-.03-22.29,30.75-6.85,34.3,9.4,2.16,6.92-6.74,9.04-12.67,5.93-16.54,34.06-13.73,31.74,11.42-4.26,46.16-68.58,44.68-81.79,1.62C-7.86,34.69,15.35.56,49.75.45Z"/>
      <path class="cls-2" d="M221.3,143.29v-65.37h-25.62v74.2l-30.56,4.38c-.74.2-2.12-.91-2.12-1.28V58.93c.91-9.97,8.83-14.31,14.57-13.69,11.43-.67,44.28-1.6,62.72,0,9.54.83,13.92,9.35,14.6,18.08,1.34,17.05-.72,36.25-.45,53.5-6.91,12.16-19.86,22.52-33.15,26.47Z"/>
      <path class="cls-1" d="M87.34,211.61c-9.76,9.62-17.8,24.46-20.91,37.83-1.45,6.24-1.2,15.13-2.76,20.21-2.08,6.78-13.29,7.41-14.57-.54-1.7-10.55,5.25-33.9,10.06-43.72,42.98-87.64,158.43-28.49,207.01-103.92,2.73-4.24,9.28-20.6,10.8-21.88,4.4-3.69,11.78-.89,11.92,5.26.19,8.51-11.98,28.23-17.68,34.91-53.01,62.16-135.69,24.36-183.88,71.85Z"/>
      <path class="cls-1" d="M170.74.42c33.48-.6,33.58-.55,68.73.16,1.04.02,2.11.13,3.1.45,17.15,5.41,16.28,32.41-3.26,32.63-32.65.38-46.74.17-65.4.22-1.84,0-4.48.11-6.1-.78s-3.55-1.93-4.32-4.68c-.88-3.14-.9-19.45.1-22.78,1.12-3.7,3.57-5.15,7.16-5.21Z"/>
      <path class="cls-1" d="M73.78,112.94c0-3.44,1.54-6.7,4.19-8.89l5.54-4.57,10.2-8.49c.52-.44,1.23-.59,1.89-.43,9.62,2.32,10.72,14.66,10.91,23.08.05,2.37.09,4.56.11,6.36.23,16.22.35,32.54-.28,48.77-12.1,3.88-22.22,11.65-32.56,18.68v-74.51Z"/>
      <path class="cls-2" d="M118.84,164.48l-.67-39.35c2.28-11.06-3.78-27.88,9.46-33.56,10.25-4.4,21.12.93,23.68,11.73l.09,53.55-1.33,1.32c-10.54,1.14-21.26,2.67-31.22,6.31Z"/>
      <path class="cls-2" d="M151.51,197.17v48.14c0,1.17-3.13,9.46-3.94,11.08-5.23,10.44-16.83,18.65-28.74,18.52v-69.34c9.64-5.1,21.67-8.16,32.68-8.39Z"/>
      <path class="cls-2" d="M96.3,45.23h49.47c.84,0,4.21,3.05,4.75,4.09,1.42,2.73,1.56,19.32.81,22.67-.4,1.79-4.05,5.93-5.56,5.93h-48.58c-3.31,0-1.35-6.19-1.33-7.52.07-3.95.3-8.52.03-12.39-.32-4.62-3.97-9.66.41-12.78Z"/>
      <path class="cls-1" d="M106.46,212.19v50.79c0,4.3-8.04,10.88-12.12,11.72-7.63,1.58-17.95-3.99-17.99-12.59-.06-12.22,9.99-32.89,18.59-41.56,2.75-2.77,7.91-6.88,11.52-8.36Z"/>
      <path class="cls-2" d="M195.67,190.99c-.27,12.75,5.07,35.61-13.01,38.65-19.97,3.35-21.58-20.2-19.28-34.29l32.29-4.36Z"/>
      <path class="cls-1" d="M221.3,183.92c2.36-2.33,8.96,7.1,11.02,8.85,6.29,5.37,14.05,8.5,22.02,10.48l.59,1.39c1.82,13.06-4.58,27.51-19.88,25.15-5.67-.87-13.75-8.7-13.75-14.52v-31.36Z"/>
      <path class="cls-1" d="M291.68,32.08c2.98-.81,7.47,9.26,8.28,11.78,3.97,12.42,1.41,31.03-8.4,40.28-7.64,7.2-10.73-1.35-12.86-8.42-3.13-10.4-2.27-20.53,2.32-30.39,1.32-2.83,7.98-12.52,10.66-13.25Z"/>
      <path class="cls-1" d="M252.88,167.36c10.55-1.44,24.18,2.62,32.03,9.91,6.1,5.67,3.16,7.88-3.22,10.95-13.12,6.32-33.77,4.99-44.1-6.03-8.13-8.67,8.48-13.9,15.29-14.83Z"/>
      <path class="cls-1" d="M321.97,127.42c-4.26,20.69-29.02,32.81-48.44,25.46-1.17-7.51,5.48-14.97,10.94-19.29,11-8.71,24.28-10.32,37.5-6.17Z"/>
      <path class="cls-1" d="M318.23,82.55c1.66-.32,3.3-.44,4.97-.08,2.61.88.71,8.29.16,10.5-2.78,11.1-13.52,20.97-25.25,20.8-4.64-12.42,8.03-28.88,20.12-31.22Z"/>
    </g>
    <g>
      <path class="cls-1" d="M811.88,202.98c-2.04-2.18-3.05-6.25-3.05-9.21v-112.34c.01-7.7,5.08-11.37,12.32-12.19,11.97-1.36,38.04-1.07,50.28.02,80.16,7.14,82.71,128.11-1.63,137.63-10.26,1.16-44.88,1.76-53.42-1.36-1.35-.49-3.57-1.55-4.5-2.55ZM833.4,185.32h32.89c22.96,0,40.58-25.67,40.74-47.08.14-18.84-16.08-47.07-36.87-47.07h-36.76v94.15Z"/>
      <path class="cls-1" d="M651.52,97.62c-2.23-2.04-4.75,5.55-5.36,6.87-7.08,15.26-13.32,31.63-19.12,47.29,7.98.29,13.51.07,19.85-1.41,10.92-2.55,17.26-8.55,18.09,2.51,1.68,22.47-33.85,19.7-48.32,21.43-6.31,10.73-11.06,42.18-30.11,31.5-8.41-4.71-3.65-14.75-1.02-21.36,14.79-37.12,34.42-74.12,50.27-110.96,6.85-10.6,25.24-9.11,30.61,2.15,13.86,37.32,39.87,77.23,51.9,114.47,5.91,18.31-14.54,23.97-22.68,9.8l-44.1-102.3Z"/>
      <path class="cls-1" d="M1214.97,97.62c-2.23-2.04-4.75,5.55-5.36,6.87-7.08,15.26-13.32,31.63-19.12,47.29,7.98.29,13.51.07,19.85-1.41,10.92-2.55,17.26-8.55,18.09,2.51,1.68,22.47-33.85,19.7-48.32,21.43-6.31,10.73-11.06,42.18-30.11,31.5-8.41-4.71-3.65-14.75-1.02-21.36,14.79-37.12,34.42-74.12,50.27-110.96,6.85-10.6,25.24-9.11,30.61,2.15,13.86,37.32,39.87,77.23,51.9,114.47,5.91,18.31-14.54,23.97-22.68,9.8l-44.1-102.3Z"/>
      <path class="cls-1" d="M492.9,162.11v35.47c0,.74-2.97,6.89-3.9,7.71-5.35,4.68-20.08,2.36-20.53-6.5l.9-122.76c2.36-3.98,5.19-6.25,9.96-6.81,11.23-1.32,45.42-1.49,56.45.37,52.08,8.78,53.89,77.95,3.3,90.34-1.78.44-8.51,2.19-9.42,2.19h-36.76ZM530.95,91.17h-38.05v49.01h34.18c.46,0,7.62-2.41,8.7-2.91,21.57-9.91,17.97-46.1-4.83-46.1Z"/>
      <path class="cls-1" d="M983.66,147.92c-3.61.89,2.14,13.42,3.45,15.89,11.51,21.71,36.58,26.73,59.13,20.89,5.99-1.55,16.77-9.32,20.03.54,7.6,22.94-35.92,24.45-49.06,23.28-87.09-7.81-82.9-151.97,21.89-141.84,8.26.8,25.82,4.91,26.53,14.84,1.4,19.63-20.27,7.87-30.34,7.03-25.73-2.16-49.36,10.13-52.22,37.39,14.3,2.38,29.76,1.82,44.14-.24,3.56-.51,8.4-4.54,11.94-1.02,7.63,7.59-4.42,23.24-14.22,23.24h-41.27Z"/>
      <path class="cls-1" d="M757,66.91c9.66-1.42,14.54,4.49,14.54,13.24l-.05,114.84c-1.98,17.33-25.85,18.94-25.84-2.53l.06-110.95c.31-6.95,3.97-13.53,11.29-14.6Z"/>
      <path class="cls-1" d="M1106.53,66.91c5.84-.85,10.38,1.67,13.82,6.23l.6,125.65c-1.79,11.41-22.8,14.63-24.48-3.74-3.41-37.26,2.68-79.63.02-117.45.22-5.47,4.8-9.92,10.05-10.68Z"/>
    </g>
  </g>
</svg>